<svg width="24" height="24" viewBox="0 0 24 24" fill="none" xmlns="http://www.w3.org/2000/svg">
<mask id="mask0_2208_221" style="mask-type:alpha" maskUnits="userSpaceOnUse" x="0" y="0" width="24" height="24">
<rect width="24" height="24" transform="matrix(-1 0 0 1 24 0)" fill="#D9D9D9"/>
</mask>
<g mask="url(#mask0_2208_221)">
<path d="M20.45 12L13.1 19.35C12.85 19.6 12.7292 19.8917 12.7375 20.225C12.7459 20.5583 12.875 20.85 13.125 21.1C13.375 21.35 13.6667 21.475 14 21.475C14.3334 21.475 14.625 21.35 14.875 21.1L22.575 13.425C22.775 13.225 22.925 13 23.025 12.75C23.125 12.5 23.175 12.25 23.175 12C23.175 11.75 23.125 11.5 23.025 11.25C22.925 11 22.775 10.775 22.575 10.575L14.875 2.87499C14.625 2.62499 14.3292 2.50415 13.9875 2.51249C13.6459 2.52082 13.35 2.64999 13.1 2.89999C12.85 3.14999 12.725 3.44165 12.725 3.77499C12.725 4.10832 12.85 4.39999 13.1 4.64999L20.45 12Z" fill="white"/>
</g>
</svg>
