<svg width="47" height="48" viewBox="0 0 47 48" fill="none" xmlns="http://www.w3.org/2000/svg">
<mask id="mask0_63_57" style="mask-type:alpha" maskUnits="userSpaceOnUse" x="0" y="0" width="47" height="48">
<rect y="0.5" width="47" height="47" fill="#D9D9D9"/>
</mask>
<g mask="url(#mask0_63_57)">
<path d="M23.5 40.3031C23.0431 40.3031 22.578 40.2215 22.1047 40.0583C21.6314 39.8951 21.2153 39.634 20.8563 39.275L17.4781 36.1906C14.0184 33.0246 10.8932 29.8832 8.10261 26.7661C5.31198 23.6491 3.91667 20.2139 3.91667 16.4604C3.91667 13.3924 4.9448 10.8302 7.00105 8.77395C9.0573 6.7177 11.6194 5.68958 14.6875 5.68958C16.4174 5.68958 18.0493 6.05676 19.5833 6.79114C21.1174 7.52551 22.4229 8.52916 23.5 9.80208C24.5771 8.52916 25.8826 7.52551 27.4167 6.79114C28.9507 6.05676 30.5826 5.68958 32.3125 5.68958C35.3806 5.68958 37.9427 6.7177 39.999 8.77395C42.0552 10.8302 43.0833 13.3924 43.0833 16.4604C43.0833 20.2139 41.6962 23.6573 38.9219 26.7906C36.1476 29.924 32.9979 33.0736 29.4729 36.2396L26.1438 39.275C25.7847 39.634 25.3686 39.8951 24.8953 40.0583C24.4221 40.2215 23.9569 40.3031 23.5 40.3031ZM21.6396 13.7187C20.6931 12.3805 19.6813 11.3606 18.6042 10.6588C17.5271 9.95711 16.2215 9.60624 14.6875 9.60624C12.7292 9.60624 11.0972 10.259 9.79167 11.5646C8.48612 12.8701 7.83334 14.5021 7.83334 16.4604C7.83334 18.1576 8.43716 19.9609 9.6448 21.8703C10.8524 23.7797 12.2967 25.6319 13.9776 27.4271C15.6585 29.2222 17.3884 30.9031 19.1672 32.4698C20.946 34.0365 22.3903 35.3257 23.5 36.3375C24.6097 35.3257 26.054 34.0365 27.8328 32.4698C29.6116 30.9031 31.3415 29.2222 33.0224 27.4271C34.7033 25.6319 36.1476 23.7797 37.3552 21.8703C38.5629 19.9609 39.1667 18.1576 39.1667 16.4604C39.1667 14.5021 38.5139 12.8701 37.2083 11.5646C35.9028 10.259 34.2708 9.60624 32.3125 9.60624C30.7785 9.60624 29.4729 9.95711 28.3958 10.6588C27.3188 11.3606 26.3069 12.3805 25.3604 13.7187C25.1319 14.0451 24.8545 14.2899 24.5281 14.4531C24.2017 14.6163 23.859 14.6979 23.5 14.6979C23.141 14.6979 22.7983 14.6163 22.4719 14.4531C22.1455 14.2899 21.8681 14.0451 21.6396 13.7187Z" fill="white"/>
</g>
</svg>
