<svg width="50" height="50" viewBox="0 0 50 50" fill="none" xmlns="http://www.w3.org/2000/svg">
<mask id="mask0_2223_87" style="mask-type:alpha" maskUnits="userSpaceOnUse" x="0" y="0" width="50" height="50">
<rect width="50" height="50" fill="#D9D9D9"/>
</mask>
<g mask="url(#mask0_2223_87)">
<path d="M14.5833 35.4167V14.5833C14.5833 13.9931 14.783 13.4983 15.1823 13.099C15.5816 12.6997 16.0764 12.5 16.6667 12.5C17.2569 12.5 17.7517 12.6997 18.151 13.099C18.5503 13.4983 18.75 13.9931 18.75 14.5833V35.4167C18.75 36.007 18.5503 36.5017 18.151 36.9011C17.7517 37.3004 17.2569 37.5 16.6667 37.5C16.0764 37.5 15.5816 37.3004 15.1823 36.9011C14.783 36.5017 14.5833 36.007 14.5833 35.4167ZM22.9167 43.75V6.25001C22.9167 5.65973 23.1163 5.16494 23.5156 4.76563C23.9149 4.36632 24.4097 4.16667 25 4.16667C25.5903 4.16667 26.0851 4.36632 26.4844 4.76563C26.8837 5.16494 27.0833 5.65973 27.0833 6.25001V43.75C27.0833 44.3403 26.8837 44.8351 26.4844 45.2344C26.0851 45.6337 25.5903 45.8333 25 45.8333C24.4097 45.8333 23.9149 45.6337 23.5156 45.2344C23.1163 44.8351 22.9167 44.3403 22.9167 43.75ZM6.25 27.0833V22.9167C6.25 22.3264 6.44965 21.8316 6.84896 21.4323C7.24826 21.033 7.74306 20.8333 8.33333 20.8333C8.92361 20.8333 9.4184 21.033 9.81771 21.4323C10.217 21.8316 10.4167 22.3264 10.4167 22.9167V27.0833C10.4167 27.6736 10.217 28.1684 9.81771 28.5677C9.4184 28.967 8.92361 29.1667 8.33333 29.1667C7.74306 29.1667 7.24826 28.967 6.84896 28.5677C6.44965 28.1684 6.25 27.6736 6.25 27.0833ZM31.25 35.4167V14.5833C31.25 13.9931 31.4497 13.4983 31.849 13.099C32.2483 12.6997 32.7431 12.5 33.3333 12.5C33.9236 12.5 34.4184 12.6997 34.8177 13.099C35.217 13.4983 35.4167 13.9931 35.4167 14.5833V35.4167C35.4167 36.007 35.217 36.5017 34.8177 36.9011C34.4184 37.3004 33.9236 37.5 33.3333 37.5C32.7431 37.5 32.2483 37.3004 31.849 36.9011C31.4497 36.5017 31.25 36.007 31.25 35.4167ZM39.5833 27.0833V22.9167C39.5833 22.3264 39.783 21.8316 40.1823 21.4323C40.5816 21.033 41.0764 20.8333 41.6667 20.8333C42.2569 20.8333 42.7517 21.033 43.151 21.4323C43.5503 21.8316 43.75 22.3264 43.75 22.9167V27.0833C43.75 27.6736 43.5503 28.1684 43.151 28.5677C42.7517 28.967 42.2569 29.1667 41.6667 29.1667C41.0764 29.1667 40.5816 28.967 40.1823 28.5677C39.783 28.1684 39.5833 27.6736 39.5833 27.0833Z" fill="#7724FF"/>
</g>
</svg>
