<svg width="25" height="25" viewBox="0 0 25 25" fill="none" xmlns="http://www.w3.org/2000/svg">
<mask id="mask0_2207_209" style="mask-type:alpha" maskUnits="userSpaceOnUse" x="0" y="0" width="25" height="25">
<rect width="25" height="25" fill="#D9D9D9"/>
</mask>
<g mask="url(#mask0_2207_209)">
<path d="M12.4999 14.5833C11.6319 14.5833 10.894 14.2795 10.2864 13.6719C9.67874 13.0642 9.37492 12.3264 9.37492 11.4583V5.20834C9.37492 4.34029 9.67874 3.60244 10.2864 2.9948C10.894 2.38716 11.6319 2.08334 12.4999 2.08334C13.368 2.08334 14.1058 2.38716 14.7135 2.9948C15.3211 3.60244 15.6249 4.34029 15.6249 5.20834V11.4583C15.6249 12.3264 15.3211 13.0642 14.7135 13.6719C14.1058 14.2795 13.368 14.5833 12.4999 14.5833ZM11.4583 21.875V18.6719C9.6527 18.4288 8.15964 17.6215 6.97909 16.25C5.79853 14.8785 5.20825 13.2813 5.20825 11.4583H7.29159C7.29159 12.8993 7.7994 14.1276 8.81502 15.1432C9.83065 16.1589 11.0589 16.6667 12.4999 16.6667C13.9409 16.6667 15.1692 16.1589 16.1848 15.1432C17.2004 14.1276 17.7083 12.8993 17.7083 11.4583H19.7916C19.7916 13.2813 19.2013 14.8785 18.0208 16.25C16.8402 17.6215 15.3471 18.4288 13.5416 18.6719V21.875H11.4583ZM12.4999 12.5C12.7951 12.5 13.0425 12.4002 13.2421 12.2005C13.4418 12.0009 13.5416 11.7535 13.5416 11.4583V5.20834C13.5416 4.9132 13.4418 4.66581 13.2421 4.46616C13.0425 4.2665 12.7951 4.16668 12.4999 4.16668C12.2048 4.16668 11.9574 4.2665 11.7577 4.46616C11.5581 4.66581 11.4583 4.9132 11.4583 5.20834V11.4583C11.4583 11.7535 11.5581 12.0009 11.7577 12.2005C11.9574 12.4002 12.2048 12.5 12.4999 12.5Z" fill="white"/>
</g>
</svg>
