<svg width="40" height="40" viewBox="0 0 40 40" fill="none" xmlns="http://www.w3.org/2000/svg">
<path d="M23.8571 29C23.15 29 22.5446 28.7482 22.0411 28.2446C21.5375 27.7411 21.2857 27.1357 21.2857 26.4286V13.5714C21.2857 12.8643 21.5375 12.2589 22.0411 11.7554C22.5446 11.2518 23.15 11 23.8571 11H26.4286C27.1357 11 27.7411 11.2518 28.2446 11.7554C28.7482 12.2589 29 12.8643 29 13.5714V26.4286C29 27.1357 28.7482 27.7411 28.2446 28.2446C27.7411 28.7482 27.1357 29 26.4286 29H23.8571ZM13.5714 29C12.8643 29 12.2589 28.7482 11.7554 28.2446C11.2518 27.7411 11 27.1357 11 26.4286V13.5714C11 12.8643 11.2518 12.2589 11.7554 11.7554C12.2589 11.2518 12.8643 11 13.5714 11H16.1429C16.85 11 17.4554 11.2518 17.9589 11.7554C18.4625 12.2589 18.7143 12.8643 18.7143 13.5714V26.4286C18.7143 27.1357 18.4625 27.7411 17.9589 28.2446C17.4554 28.7482 16.85 29 16.1429 29H13.5714Z" fill="white"/>
</svg>
