<svg width="53" height="53" viewBox="0 0 53 53" fill="none" xmlns="http://www.w3.org/2000/svg">
<mask id="mask0_2207_80" style="mask-type:alpha" maskUnits="userSpaceOnUse" x="0" y="0" width="53" height="53">
<rect width="53" height="53" fill="#D9D9D9"/>
</mask>
<g mask="url(#mask0_2207_80)">
<path d="M20.9791 36.4375L36.4375 26.5L20.9791 16.5625V36.4375ZM26.5 48.5833C23.4451 48.5833 20.5743 48.0036 17.8875 46.8443C15.2007 45.6849 12.8635 44.1115 10.876 42.124C8.8885 40.1365 7.31506 37.7993 6.15569 35.1125C4.99631 32.4257 4.41663 29.5549 4.41663 26.5C4.41663 23.4451 4.99631 20.5743 6.15569 17.8875C7.31506 15.2007 8.8885 12.8635 10.876 10.876C12.8635 8.88853 15.2007 7.31509 17.8875 6.15572C20.5743 4.99634 23.4451 4.41666 26.5 4.41666C29.5548 4.41666 32.4257 4.99634 35.1125 6.15572C37.7993 7.31509 40.1364 8.88853 42.1239 10.876C44.1114 12.8635 45.6849 15.2007 46.8442 17.8875C48.0036 20.5743 48.5833 23.4451 48.5833 26.5C48.5833 29.5549 48.0036 32.4257 46.8442 35.1125C45.6849 37.7993 44.1114 40.1365 42.1239 42.124C40.1364 44.1115 37.7993 45.6849 35.1125 46.8443C32.4257 48.0036 29.5548 48.5833 26.5 48.5833ZM26.5 44.1667C31.4319 44.1667 35.6093 42.4552 39.0323 39.0323C42.4552 35.6094 44.1666 31.4319 44.1666 26.5C44.1666 21.568 42.4552 17.3906 39.0323 13.9677C35.6093 10.5448 31.4319 8.83332 26.5 8.83332C21.568 8.83332 17.3906 10.5448 13.9677 13.9677C10.5448 17.3906 8.83329 21.568 8.83329 26.5C8.83329 31.4319 10.5448 35.6094 13.9677 39.0323C17.3906 42.4552 21.568 44.1667 26.5 44.1667Z" fill="white"/>
</g>
</svg>
