<svg width="40" height="40" viewBox="0 0 40 40" fill="none" xmlns="http://www.w3.org/2000/svg">
<g clip-path="url(#clip0_94_35)">
<path d="M16.8749 28.9582C16.5971 28.9582 16.3541 28.8627 16.1457 28.6717C15.9374 28.4807 15.8333 28.229 15.8333 27.9165V12.0832C15.8333 11.7707 15.9374 11.5189 16.1457 11.328C16.3541 11.137 16.5971 11.0415 16.8749 11.0415C16.9444 11.0415 17.1874 11.1457 17.6041 11.354L25.1561 18.9061C25.3297 19.0797 25.4513 19.2533 25.5207 19.4269C25.5902 19.6005 25.6249 19.7915 25.6249 19.9998C25.6249 20.2082 25.5902 20.3991 25.5207 20.5728C25.4513 20.7464 25.3297 20.92 25.1561 21.0936L17.6041 28.6457C17.4999 28.7498 17.3871 28.828 17.2655 28.88C17.144 28.9321 17.0138 28.9582 16.8749 28.9582Z" fill="white"/>
</g>
<defs>
<clipPath id="clip0_94_35">
<rect width="11" height="18" fill="white" transform="translate(15 11)"/>
</clipPath>
</defs>
</svg>
