<svg width="25" height="25" viewBox="0 0 25 25" fill="none" xmlns="http://www.w3.org/2000/svg">
<mask id="mask0_2207_74" style="mask-type:alpha" maskUnits="userSpaceOnUse" x="0" y="0" width="25" height="25">
<rect width="25" height="25" fill="#D9D9D9"/>
</mask>
<g mask="url(#mask0_2207_74)">
<path d="M7.13546 19.7916L8.02087 20.6771C8.22921 20.8854 8.32903 21.1284 8.32035 21.4062C8.31167 21.684 8.21185 21.9271 8.02087 22.1354C7.81254 22.3437 7.56515 22.4522 7.27869 22.4609C6.99223 22.4696 6.74483 22.3698 6.5365 22.1614L3.85421 19.4791C3.75004 19.375 3.67626 19.2621 3.63285 19.1406C3.58945 19.0191 3.56775 18.8889 3.56775 18.75C3.56775 18.6111 3.58945 18.4809 3.63285 18.3593C3.67626 18.2378 3.75004 18.125 3.85421 18.0208L6.5365 15.3385C6.74483 15.1302 6.99223 15.0304 7.27869 15.039C7.56515 15.0477 7.81254 15.1562 8.02087 15.3646C8.21185 15.5729 8.31167 15.8159 8.32035 16.0937C8.32903 16.3715 8.22921 16.6146 8.02087 16.8229L7.13546 17.7083H17.7084V14.5833C17.7084 14.2882 17.8082 14.0408 18.0079 13.8411C18.2075 13.6415 18.4549 13.5416 18.75 13.5416C19.0452 13.5416 19.2926 13.6415 19.4922 13.8411C19.6919 14.0408 19.7917 14.2882 19.7917 14.5833V17.7083C19.7917 18.2812 19.5877 18.7717 19.1797 19.1797C18.7717 19.5876 18.2813 19.7916 17.7084 19.7916H7.13546ZM17.8646 7.29164H7.29171V10.4166C7.29171 10.7118 7.19188 10.9592 6.99223 11.1588C6.79258 11.3585 6.54518 11.4583 6.25004 11.4583C5.9549 11.4583 5.70751 11.3585 5.50785 11.1588C5.3082 10.9592 5.20837 10.7118 5.20837 10.4166V7.29164C5.20837 6.71872 5.41237 6.22827 5.82035 5.82028C6.22834 5.4123 6.71879 5.2083 7.29171 5.2083H17.8646L16.9792 4.32289C16.7709 4.11455 16.671 3.8715 16.6797 3.59372C16.6884 3.31594 16.7882 3.07289 16.9792 2.86455C17.1875 2.65622 17.4349 2.54771 17.7214 2.53903C18.0079 2.53035 18.2552 2.63018 18.4636 2.83851L21.1459 5.5208C21.25 5.62497 21.3238 5.73782 21.3672 5.85935C21.4106 5.98087 21.4323 6.11108 21.4323 6.24997C21.4323 6.38886 21.4106 6.51907 21.3672 6.6406C21.3238 6.76212 21.25 6.87497 21.1459 6.97914L18.4636 9.66143C18.2552 9.86976 18.0079 9.96959 17.7214 9.96091C17.4349 9.95223 17.1875 9.84372 16.9792 9.63539C16.7882 9.42705 16.6884 9.184 16.6797 8.90622C16.671 8.62844 16.7709 8.38539 16.9792 8.17705L17.8646 7.29164Z" fill="white"/>
</g>
</svg>
