<svg width="25" height="25" viewBox="0 0 25 25" fill="none" xmlns="http://www.w3.org/2000/svg">
<mask id="mask0_2207_77" style="mask-type:alpha" maskUnits="userSpaceOnUse" x="0" y="0" width="25" height="25">
<rect width="25" height="25" fill="#D9D9D9"/>
</mask>
<g mask="url(#mask0_2207_77)">
<path d="M17.2916 18.75L13.9843 15.4427L15.4687 13.9583L18.75 17.2396V15.625C18.75 15.3299 18.8498 15.0825 19.0494 14.8828C19.2491 14.6831 19.4965 14.5833 19.7916 14.5833C20.0868 14.5833 20.3342 14.6831 20.5338 14.8828C20.7335 15.0825 20.8333 15.3299 20.8333 15.625V19.7917C20.8333 20.0868 20.7335 20.3342 20.5338 20.5338C20.3342 20.7335 20.0868 20.8333 19.7916 20.8333H15.625C15.3298 20.8333 15.0824 20.7335 14.8828 20.5338C14.6831 20.3342 14.5833 20.0868 14.5833 19.7917C14.5833 19.4965 14.6831 19.2491 14.8828 19.0495C15.0824 18.8498 15.3298 18.75 15.625 18.75H17.2916ZM18.75 7.70832L5.93746 20.5208C5.74649 20.7118 5.50343 20.8073 5.20829 20.8073C4.91315 20.8073 4.6701 20.7118 4.47913 20.5208C4.28815 20.3298 4.19267 20.0868 4.19267 19.7917C4.19267 19.4965 4.28815 19.2535 4.47913 19.0625L17.2916 6.24999H15.625C15.3298 6.24999 15.0824 6.15016 14.8828 5.95051C14.6831 5.75086 14.5833 5.50346 14.5833 5.20832C14.5833 4.91318 14.6831 4.66579 14.8828 4.46614C15.0824 4.26648 15.3298 4.16666 15.625 4.16666H19.7916C20.0868 4.16666 20.3342 4.26648 20.5338 4.46614C20.7335 4.66579 20.8333 4.91318 20.8333 5.20832V9.37499C20.8333 9.67013 20.7335 9.91752 20.5338 10.1172C20.3342 10.3168 20.0868 10.4167 19.7916 10.4167C19.4965 10.4167 19.2491 10.3168 19.0494 10.1172C18.8498 9.91752 18.75 9.67013 18.75 9.37499V7.70832ZM9.55725 11.0156L4.45308 5.93749C4.26211 5.74652 4.16663 5.50346 4.16663 5.20832C4.16663 4.91318 4.26211 4.67013 4.45308 4.47916C4.64406 4.28818 4.88277 4.1927 5.16923 4.1927C5.45569 4.1927 5.70308 4.28818 5.91142 4.47916L11.0156 9.55728L9.55725 11.0156Z" fill="white"/>
</g>
</svg>
