<svg width="40" height="40" viewBox="0 0 40 40" fill="none" xmlns="http://www.w3.org/2000/svg">
<mask id="mask0_2207_86" style="mask-type:alpha" maskUnits="userSpaceOnUse" x="0" y="0" width="40" height="40">
<rect width="40" height="40" fill="#D9D9D9"/>
</mask>
<g mask="url(#mask0_2207_86)">
<path d="M9.16663 28.3333V11.6667C9.16663 11.1944 9.32635 10.7986 9.64579 10.4792C9.96524 10.1597 10.3611 10 10.8333 10C11.3055 10 11.7013 10.1597 12.0208 10.4792C12.3402 10.7986 12.5 11.1944 12.5 11.6667V28.3333C12.5 28.8056 12.3402 29.2014 12.0208 29.5208C11.7013 29.8403 11.3055 30 10.8333 30C10.3611 30 9.96524 29.8403 9.64579 29.5208C9.32635 29.2014 9.16663 28.8056 9.16663 28.3333ZM28.25 28.2917L17.9166 21.375C17.6666 21.2083 17.4791 21.0069 17.3541 20.7708C17.2291 20.5347 17.1666 20.2778 17.1666 20C17.1666 19.7222 17.2291 19.4653 17.3541 19.2292C17.4791 18.9931 17.6666 18.7917 17.9166 18.625L28.25 11.7083C28.3888 11.5972 28.5416 11.5278 28.7083 11.5C28.875 11.4722 29.0277 11.4583 29.1666 11.4583C29.6111 11.4583 30 11.6111 30.3333 11.9167C30.6666 12.2222 30.8333 12.625 30.8333 13.125V26.875C30.8333 27.375 30.6666 27.7778 30.3333 28.0833C30 28.3889 29.6111 28.5417 29.1666 28.5417C29.0277 28.5417 28.875 28.5278 28.7083 28.5C28.5416 28.4722 28.3888 28.4028 28.25 28.2917ZM27.5 23.75V16.25L21.8333 20L27.5 23.75Z" fill="white"/>
</g>
</svg>
