<svg width="40" height="40" viewBox="0 0 40 40" fill="none" xmlns="http://www.w3.org/2000/svg">
<mask id="mask0_2207_83" style="mask-type:alpha" maskUnits="userSpaceOnUse" x="0" y="0" width="40" height="40">
<rect width="40" height="40" fill="#D9D9D9"/>
</mask>
<g mask="url(#mask0_2207_83)">
<path d="M27.5 28.3333V11.6667C27.5 11.1944 27.6597 10.7986 27.9791 10.4792C28.2986 10.1597 28.6944 10 29.1666 10C29.6388 10 30.0347 10.1597 30.3541 10.4792C30.6736 10.7986 30.8333 11.1944 30.8333 11.6667V28.3333C30.8333 28.8056 30.6736 29.2014 30.3541 29.5208C30.0347 29.8403 29.6388 30 29.1666 30C28.6944 30 28.2986 29.8403 27.9791 29.5208C27.6597 29.2014 27.5 28.8056 27.5 28.3333ZM9.16663 26.875V13.125C9.16663 12.625 9.33329 12.2222 9.66663 11.9167C9.99996 11.6111 10.3888 11.4583 10.8333 11.4583C10.9722 11.4583 11.125 11.4722 11.2916 11.5C11.4583 11.5278 11.6111 11.5972 11.75 11.7083L22.0833 18.625C22.3333 18.7917 22.5208 18.9931 22.6458 19.2292C22.7708 19.4653 22.8333 19.7222 22.8333 20C22.8333 20.2778 22.7708 20.5347 22.6458 20.7708C22.5208 21.0069 22.3333 21.2083 22.0833 21.375L11.75 28.2917C11.6111 28.4028 11.4583 28.4722 11.2916 28.5C11.125 28.5278 10.9722 28.5417 10.8333 28.5417C10.3888 28.5417 9.99996 28.3889 9.66663 28.0833C9.33329 27.7778 9.16663 27.375 9.16663 26.875ZM12.5 23.75L18.1666 20L12.5 16.25V23.75Z" fill="white"/>
</g>
</svg>
