<svg width="25" height="25" viewBox="0 0 25 25" fill="none" xmlns="http://www.w3.org/2000/svg">
<mask id="mask0_2207_206" style="mask-type:alpha" maskUnits="userSpaceOnUse" x="0" y="0" width="25" height="25">
<rect width="25" height="25" fill="#D9D9D9"/>
</mask>
<g mask="url(#mask0_2207_206)">
<path d="M19.7917 12.474C19.7917 11.033 19.4097 9.71789 18.6458 8.52866C17.8819 7.33942 16.8576 6.44966 15.5729 5.85939C15.3125 5.73786 15.1215 5.55123 15 5.29949C14.8785 5.04775 14.8611 4.79168 14.9479 4.53126C15.0521 4.25348 15.2387 4.05383 15.5078 3.9323C15.7769 3.81077 16.0503 3.81077 16.3281 3.9323C18.0122 4.67883 19.3576 5.82032 20.3646 7.35678C21.3715 8.89324 21.875 10.599 21.875 12.474C21.875 14.349 21.3715 16.0547 20.3646 17.5912C19.3576 19.1276 18.0122 20.2691 16.3281 21.0156C16.0503 21.1372 15.7769 21.1372 15.5078 21.0156C15.2387 20.8941 15.0521 20.6945 14.9479 20.4167C14.8611 20.1563 14.8785 19.9002 15 19.6484C15.1215 19.3967 15.3125 19.2101 15.5729 19.0886C16.8576 18.4983 17.8819 17.6085 18.6458 16.4193C19.4097 15.23 19.7917 13.9149 19.7917 12.474ZM7.29167 15.625H4.16667C3.87153 15.625 3.62413 15.5252 3.42448 15.3255C3.22483 15.1259 3.125 14.8785 3.125 14.5833V10.4167C3.125 10.1215 3.22483 9.87414 3.42448 9.67449C3.62413 9.47484 3.87153 9.37501 4.16667 9.37501H7.29167L10.7292 5.93751C11.059 5.60765 11.4366 5.53386 11.862 5.71616C12.2873 5.89845 12.5 6.22397 12.5 6.69272V18.3073C12.5 18.7761 12.2873 19.1016 11.862 19.2839C11.4366 19.4662 11.059 19.3924 10.7292 19.0625L7.29167 15.625ZM17.1875 12.5C17.1875 13.2292 17.0226 13.9193 16.6927 14.5703C16.3628 15.2214 15.9288 15.7552 15.3906 16.1719C15.217 16.2761 15.0391 16.2804 14.8568 16.1849C14.6745 16.0894 14.5833 15.9375 14.5833 15.7292V9.21876C14.5833 9.01043 14.6745 8.85852 14.8568 8.76303C15.0391 8.66754 15.217 8.67189 15.3906 8.77605C15.9288 9.21008 16.3628 9.75695 16.6927 10.4167C17.0226 11.0764 17.1875 11.7708 17.1875 12.5ZM10.4167 9.21876L8.17708 11.4583H5.20833V13.5417H8.17708L10.4167 15.7813V9.21876Z" fill="white"/>
</g>
</svg>
